<svg xmlns="http://www.w3.org/2000/svg" viewBox="0 0 50 53">
  <circle fill="#68B738" cx="25" cy="28" r="25" />
  <path d="M35.2,0H35c-0.3,0.2-0.6,0.5-0.8,0.8C34,1.4,33.7,2,33.6,2.6c0,0.2-0.1,0.4-0.3,0.5c-0.1,0.1-0.3,0.2-0.5,0.2
    c-0.6,0.1-1.1,0.3-1.6,0.7c-0.5,0.3-0.8,0.8-1.1,1.3c-0.4,0.7-0.7,1.4-1,2.1c-0.7,1.9-1.3,3.9-2,5.8c-0.3,0.9-0.3,0.9-1.3,0.9
    c-1.2,0-1.1-0.2-1.1,1.1c0,0.4,0.1,0.6,0.6,0.6c0.1,0,0.3-0.1,0.4,0.1c0.1,0.2-0.1,0.3-0.2,0.4c-0.6,0.6-1.4,1.1-2.2,1.3
    c-1,0.3-2,0.5-2.9,0.8c-2.4,0.8-4.7,2-6.5,3.9c-1,1.2-1.9,2.6-2.4,4C9.6,30.5,8.7,35.2,7.9,40c-0.3,2.2-0.6,4.5-0.8,6.7
    C7.1,47.8,7,48.9,7,50h17.1c0-0.2,0-0.5-0.1-0.7c-0.2-0.4-0.4-0.8-0.8-1.1c-0.3-0.3-0.8-0.5-1.2-0.5c-0.4-0.1-0.4-0.2-0.2-0.5
    c0.4-0.5,0.6-1,0.8-1.6c0.8-2.5,1.2-5.1,1.6-7.6c0.2-2,0.8-3.9,1.8-5.6c0.7-1.3,1.7-2.4,2.9-3.3c0.4-0.3,0.4-0.3,0.5,0.2
    c0.1,0.4,0.1,0.7,0.1,1.1c0.2,2.4,0.1,4.9-0.1,7.3c-0.2,1.9-0.2,3.8-0.1,5.7c0.2,2.2,0.6,4.4,1.2,6.5h6.8c-0.1-0.6-0.3-1.1-0.7-1.5
    c-0.4-0.4-0.9-0.7-1.4-0.8c-0.6-0.1-1.3-0.1-1.9,0.1c-0.3,0.1-0.4,0-0.5-0.3c-0.2-2.7,0-5.5,0.5-8.2c0.7-3.1,1.2-6.2,1.6-9.4
    c0.1-1.3,0.5-2.5,1.2-3.6c0.6-1.1,1.1-2.2,1.7-3.3c0.2-0.4,0.4-0.8,0.4-1.3c0-0.5,0-0.9-0.2-1.4c-0.1-0.4-0.3-0.7-0.4-1.1
    c-0.5-1-1-2-1.5-3c-0.3-0.5-0.2-0.6,0.4-0.6c0.8,0,0.8,0,0.9-0.8c0-0.1,0-0.2,0-0.3c0-0.4-0.1-0.6-0.5-0.5c-0.3,0-0.5,0-0.8,0
    c-0.4,0-0.5-0.1-0.4-0.5c0.2-0.6,0.5-1.1,1-1.5c0.5-0.4,1-0.7,1.7-0.8c1.1-0.1,2.3,0,3.4,0.2c0.1,0,0.3,0,0.4,0
    c0.1-0.1,0.2-0.2,0.3-0.3c0.2-0.5,0.4-1,0.7-1.5C43,9.4,43,9.3,43,9.2C43,9.1,43,9,42.9,8.9c-1.6-2.1-3.4-4-5.9-5.3
    c-0.1-0.1-0.2-0.1-0.3-0.2c-0.1-0.1-0.1-0.2-0.2-0.3c-0.1-0.7-0.4-1.5-0.7-2.1C35.8,0.5,35.5,0.2,35.2,0L35.2,0z" />
</svg>
