<svg xmlns="http://www.w3.org/2000/svg" viewBox="0 0 174 52">
  <path d="M51.58,20.85A22,22,0,0,0,34.14,7.37a21.93,21.93,0,0,0-20.33,8.4A22.37,22.37,0,0,0,17.56,46.9,22,22,0,0,0,28,51.44c-.5-1.82-1-3.82-1.45-5.95a27.43,27.43,0,0,0,4.1,2.21s.1,1.88.24,4a22.08,22.08,0,0,0,4.59-.4,1.83,1.83,0,0,1,0-.66c.25-1.63.94-4.56,1.08-6.44a13.57,13.57,0,0,0,2.5-3.23l-.05.39a36.18,36.18,0,0,1-2.07,8.75,5,5,0,0,1-.72,1,22,22,0,0,0,8.57-4.14,22.26,22.26,0,0,0,6-7.38,22.42,22.42,0,0,0,.75-18.7Zm-1.26,3.3c-.38.37-1.17.62-1.3-.51s-.16-1.92-.16-1.92-1.66-3-2.28-3-5,3-6.19,4.34c-1,1.12-1.2,1.05-1.2,3,0,1.48.19,7.1.08,11.39l-7,1.88a55.24,55.24,0,0,1-6.72,1.5l-.86-5.07h-.12L22.34,24.33s-3.29-1.25-4.49-1.59a3.24,3.24,0,0,0-3.45.55,4.24,4.24,0,0,0-1.1,1.51,4.42,4.42,0,0,0-.39,1.83,7.17,7.17,0,0,1,.42,1.26c0,.42-1,.38-1.73.38s-.79-1.26-.25-2.72a20.28,20.28,0,0,1,1.57-3.25,10.38,10.38,0,0,1,1.78-2.51s.12-.3,1.08-.21,6.27.37,6.27.37l.05-2a121,121,0,0,1,17.43-1.17V18.4a19.38,19.38,0,0,1,7-1.73.73.73,0,0,1,.38.08,1,1,0,0,1,.29.25c.29.38,2.07,2.61,2.28,2.93a24.72,24.72,0,0,1,1.57,2.61,5.55,5.55,0,0,1-.74,1.6Z" fill="#fdc305" />
  <path d="M48.64,18.83,49.5,20a24.72,24.72,0,0,1,1.57,2.61,5.21,5.21,0,0,1-.74,1.54c-.38.38-1.16.63-1.29-.5s-.18-1.88-.18-1.88-1.66-3-2.28-3-5,3-6.19,4.34c-1,1.12-1.2,1.05-1.2,3,0,1.3.14,5.78.11,9.76,1.56.17,3.85.6,4.54,1.63,0,0-.25-6.24,6.73-3,0,0,.24-8.51,9.87-6.33A37.76,37.76,0,0,0,48.64,18.83Z" fill="#f06351" />
  <path d="M39.57,16.81A79.48,79.48,0,0,0,38.36,2.45s-.13-1.13-.75-.21a12.36,12.36,0,0,0-1,3.48,60.89,60.89,0,0,0-11,.29c-.7-2.39-1.91-3.47-2.49-3.19s-.64,2.85-.64,2.85L22.11,18A121.46,121.46,0,0,1,39.57,16.81Z" fill="#f06351" />
  <path d="M39.07,40.94c.11-.93.17-2.16.2-3.52l-7,1.88a55,55,0,0,1-6.72,1.54l1,4.34a.51.51,0,0,0,.06.29,28.42,28.42,0,0,0,4.1,2.22,37.29,37.29,0,0,0,5.93-3.59v0A13.48,13.48,0,0,0,39.07,40.94Z" fill="#e55645" />
  <path d="M27.57,14.09c-.05-.08.86.59,1.21.8s.53.37.53.52-.23.29-.54.29a1.49,1.49,0,0,1-.86-.22c-.07-.13.52,0,.81,0H29A7.09,7.09,0,0,1,27.57,14.09Z" />
  <path d="M34,14.19s-.86,1.11-.94,1.16-.15.3.16.26a7.3,7.3,0,0,0,1-.25c.1,0,.06-.17-.1-.15a8.42,8.42,0,0,0-.86.09l.73-1.1S34.1,14.09,34,14.19Z" />
  <path d="M31.32,19.5a2,2,0,0,0,.94-.87c.24-.57,0-.79-.38-.87a2.07,2.07,0,0,0-1.51.3.51.51,0,0,0,0,.86A4,4,0,0,0,31.32,19.5Z" />
  <path d="M31,20.59a1.58,1.58,0,0,1-.4.52,1.41,1.41,0,0,1-.86.33,1.81,1.81,0,0,1-1.32-.38,1.57,1.57,0,0,1-.46-.39,1,1,0,0,0-.31-.22s.65,3.58,2.21,4.15,1.86-.66,1.91-1a5,5,0,0,0-.71-2.82C31.07,20.53,31.05,20.71,31,20.59Z" fill="#f06351" />
  <path d="M29.55,21.58a2.75,2.75,0,0,1-1.14-.41,2.93,2.93,0,0,1-.89-.83.12.12,0,0,1,0-.09.11.11,0,0,1,0-.08l0,0h.1l0,0a2.85,2.85,0,0,0,.8.75,2.7,2.7,0,0,0,1,.39,1.9,1.9,0,0,0,.81-.27,1.94,1.94,0,0,0,.61-.6l.12-.17.08.19s.33.66.86.7.92-.37,1.41-1.12a.12.12,0,0,1,.08-.06.15.15,0,0,1,.09,0,.1.1,0,0,1,0,.08.12.12,0,0,1,0,.1C33,21,32.49,21.44,32,21.4a1.28,1.28,0,0,1-.56-.21,1.37,1.37,0,0,1-.41-.42,2.06,2.06,0,0,1-.64.57A1.81,1.81,0,0,1,29.55,21.58Z" />
  <path d="M31.24,33.28A3.26,3.26,0,1,0,28,30,3.25,3.25,0,0,0,31.24,33.28Z" fill="#fdc305" />
  <path d="M35.52,27.37l-2.7,1.14,1-4.89L27.35,32.1,30.05,31l-1,4.9ZM29.15,30.7,32.73,26,32,29.47l1.72-.71-3.61,4.71.7-3.47Z" fill="#111" />
  <path d="M27.94,29.42a1,1,0,1,0-1-1A1,1,0,0,0,27.94,29.42Z" fill="#111" />
  <path d="M33.56,33a.68.68,0,0,0,.68-.69.68.68,0,0,0-1.36,0A.69.69,0,0,0,33.56,33Z" fill="#111" />
  <path d="M34.39,31.06a.3.3,0,1,0,0-.6.3.3,0,0,0,0,.6Z" fill="#111" />
  <path d="M39.52,18.39a49.2,49.2,0,0,0-4.38,4.52,27.59,27.59,0,0,1-4.58,4.26c-.19-.46-1.4-1.32-1.4-1.32S26.45,24,24.68,22.51a26.51,26.51,0,0,1-2.7-2.6l-1.73-.1a19.48,19.48,0,0,0,10.34,7.68c.74-.12,2.82-1.62,4.38-2.85a49.1,49.1,0,0,0,5.17-5.13,5.65,5.65,0,0,0,1-1.74A16.86,16.86,0,0,0,39.52,18.39Z" fill="#f06351" />
  <path d="M22.34,24.33s-3.29-1.25-4.49-1.59a3.24,3.24,0,0,0-3.45.55,4.24,4.24,0,0,0-1.1,1.51,4.42,4.42,0,0,0-.39,1.83,7.17,7.17,0,0,1,.42,1.26c0,.42-1,.38-1.73.38s-.79-1.26-.25-2.72a20.28,20.28,0,0,1,1.57-3.25C8.23,24.76,0,30.46,0,30.46a39.69,39.69,0,0,1,7.06.21c4.52.46,4.3,4.06,4.3,4.06a33.28,33.28,0,0,1,4.85-1c1.83-.13,2,1.84,2,1.84L18.62,39a16.52,16.52,0,0,1,2.29-2.05,5.19,5.19,0,0,1,3.77-1.13Z" fill="#f06351" />
  <path d="M73.79,36.49A7.26,7.26,0,0,1,72.58,32V25.47a7.42,7.42,0,0,1,1.19-4.56c.8-1,2.16-1.55,4.09-1.54s3.24.46,3.92,1.36a5.87,5.87,0,0,1,1.15,3.9v1.53H79.36V24.5a8.15,8.15,0,0,0-.11-1.3,1.47,1.47,0,0,0-.4-.83,1.66,1.66,0,0,0-.47-.26,1.54,1.54,0,0,0-.52-.06,1.29,1.29,0,0,0-.75.12,1.4,1.4,0,0,0-.55.53,5,5,0,0,0-.29,1.92v8.27a4.18,4.18,0,0,0,.34,1.91,1.3,1.3,0,0,0,.53.51,1.27,1.27,0,0,0,.72.12,1.06,1.06,0,0,0,.7-.12,1.2,1.2,0,0,0,.5-.52,5.12,5.12,0,0,0,.27-1.9V31.15h3.56v1.5a6.32,6.32,0,0,1-1,4c-.76,1-2.07,1.42-3.93,1.42A4.93,4.93,0,0,1,73.79,36.49Z" fill="#111" />
  <path d="M87.79,19.62h4.08l3.45,18.25h-3.4l-.61-4H88.45l-.69,4H84.32Zm3.14,11.92-1.08-7.33-1.08,7.33Z" fill="#111" />
  <path d="M98,22.37H95.17V19.62h9.23v2.75h-2.75V37.84H98Z" fill="#111" />
  <path d="M111.65,19.62h7v1.89h-4.48v6h3.64v1.79h-3.64V36h4.53v1.82h-7Z" fill="#444" />
  <path d="M120.73,19.62h1.72l5.17,12.1V19.62h2.1V37.87h-1.61l-5.17-12.45V37.84h-2.13Z" fill="#444" />
  <path d="M132.51,19.62h7v1.89H135v6h3.67v1.79h-3.64V36h4.5v1.82h-7Z" fill="#444" />
  <path d="M141.58,19.62h3.63a6,6,0,0,1,4,1.14,4.65,4.65,0,0,1,1.29,3.7c0,2.32-.75,3.73-2.23,4.25l2.58,9.13h-2.45l-2.37-8.55h-2v8.55h-2.52ZM145,27.44a3.31,3.31,0,0,0,2.33-.66,3.11,3.11,0,0,0,.7-2.35,4.9,4.9,0,0,0-.25-1.74,1.51,1.51,0,0,0-.33-.56,1.66,1.66,0,0,0-.53-.38,4.1,4.1,0,0,0-1.76-.31h-1.11v6Z" fill="#444" />
  <path d="M153.91,36.49a8.1,8.1,0,0,1-1.09-4.64V25.76a11.63,11.63,0,0,1,.43-3.47,3.94,3.94,0,0,1,1.5-2.1,5.08,5.08,0,0,1,2.89-.73,4.57,4.57,0,0,1,3.6,1.29,6.06,6.06,0,0,1,1.1,4v.68H160v-.56a10.46,10.46,0,0,0-.16-2,1.74,1.74,0,0,0-.65-1.07,2.6,2.6,0,0,0-1.49-.36,2.17,2.17,0,0,0-1.55.49,2.22,2.22,0,0,0-.67,1.29,12,12,0,0,0-.14,2.16v6.77a6.6,6.6,0,0,0,.5,3,2.51,2.51,0,0,0,.87.68,2.39,2.39,0,0,0,1.08.23,2.53,2.53,0,0,0,1.07-.27,2.61,2.61,0,0,0,.83-.72,7,7,0,0,0,.53-3.17V30.62h-2.29v-1.8h4.56v9h-1.56l-.25-2.09a3.18,3.18,0,0,1-3.21,2.32,4,4,0,0,1-2-.33A4,4,0,0,1,153.91,36.49Z" fill="#444" />
  <path d="M167.71,31.41l-3.9-11.79h2.34l2.77,8.79,2.72-8.79H174l-3.88,11.79v6.43h-2.41Z" fill="#444" />
</svg>
